<?xml version="1.0" encoding="UTF-8"?> <svg xmlns="http://www.w3.org/2000/svg" width="77" height="76" viewBox="0 0 77 76" fill="none"> <path d="M46.0762 42.7505C41.0999 42.7505 37.0511 46.799 37.0511 51.776C37.0511 56.7529 41.0999 60.8007 46.0762 60.8007C51.0526 60.8007 55.1013 56.7529 55.1013 51.776C55.1013 46.799 51.0526 42.7505 46.0762 42.7505ZM46.0762 58.361C42.4446 58.361 39.4901 55.4067 39.4901 51.7752C39.4901 48.1437 42.4446 45.1886 46.0762 45.1886C49.7079 45.1886 52.6623 48.1437 52.6623 51.7752C52.6623 55.4067 49.7079 58.361 46.0762 58.361Z" fill="#BFA069"></path> <path d="M54.2153 26.6333H54.2137C53.8549 26.6132 53.4946 26.6003 53.131 26.6003H12.9347C12.6508 26.6003 12.3757 26.7009 12.1585 26.8836L5.18117 32.7536C4.81115 33.0651 4.67843 33.5504 4.79507 33.989C4.76933 34.088 4.75082 34.1894 4.75082 34.2964V47.7772C4.75082 48.4435 5.29057 48.9843 5.95741 48.9843H27.3639C27.1765 50.0595 27.0815 51.1266 27.0815 52.1704C27.0815 62.6912 35.6371 71.2508 46.1529 71.2508C52.0732 71.2508 57.3717 68.5379 60.8724 64.2895C60.9424 64.2476 61.0172 64.2187 61.08 64.1615L67.1588 58.6014C67.1861 58.5764 67.2118 58.5507 67.2368 58.5225C70.4383 55.004 72.2015 50.4442 72.2015 45.6823C72.2023 35.5245 64.2284 27.1983 54.2153 26.6333ZM46.1537 33.0884H41.341L45.408 29.0147H51.3074L47.1656 33.1158C46.8302 33.0981 46.4931 33.0884 46.1537 33.0884ZM13.3747 29.0147H41.9974L37.9304 33.0884H8.53147L13.3747 29.0147ZM46.1537 68.8357C36.9683 68.8357 29.4955 61.3593 29.4955 52.1696C29.4955 50.8401 29.6741 49.4615 30.0248 48.0725C30.1165 47.712 30.0361 47.3281 29.8068 47.0343C29.5784 46.7414 29.2269 46.5692 28.8544 46.5692H7.16319V35.5027H46.1529C55.3382 35.5027 62.811 42.9791 62.811 52.1696C62.8126 61.3593 55.3398 68.8357 46.1537 68.8357ZM65.4896 56.8566L64.3442 57.9044C64.9161 56.0937 65.2258 54.1671 65.2258 52.1696C65.2258 43.033 58.7722 35.3788 50.1861 33.5214L54.6601 29.0911C63.1312 29.8669 69.7899 37.0061 69.7899 45.6807C69.7891 49.8221 68.2632 53.7888 65.4896 56.8566Z" fill="#BFA069"></path> <path d="M49.4013 21.8502C49.9263 21.8502 50.3513 21.3053 50.3513 20.6339V5.01637C50.3513 4.34496 49.9263 3.80005 49.4013 3.80005C48.8762 3.80005 48.4513 4.34496 48.4513 5.01637V20.6339C48.4513 21.3061 48.8769 21.8502 49.4013 21.8502Z" fill="#BFA069"></path> <path d="M57.2514 22.8001C57.5587 22.8001 57.866 22.6833 58.1005 22.4488L68.9997 11.5493C69.4687 11.0803 69.4687 10.3208 68.9997 9.85176C68.5308 9.38275 67.7713 9.38275 67.3023 9.85176L56.4031 20.7512C55.9341 21.2202 55.9341 21.9798 56.4031 22.4488C56.6375 22.6833 56.9441 22.8001 57.2514 22.8001Z" fill="#BFA069"></path> <path d="M41.6513 22.4488C41.8857 22.6833 42.193 22.8001 42.5004 22.8001C42.8077 22.8001 43.115 22.6833 43.3495 22.4488C43.8185 21.9798 43.8185 21.2202 43.3495 20.7512L32.4502 9.85176C31.9813 9.38275 31.2218 9.38275 30.7528 9.85176C30.2838 10.3208 30.2838 11.0803 30.7528 11.5493L41.6513 22.4488Z" fill="#BFA069"></path> </svg> 