<?xml version="1.0" encoding="UTF-8"?> <svg xmlns="http://www.w3.org/2000/svg" width="76" height="76" viewBox="0 0 76 76" fill="none"> <path d="M38 7.71875C32.0109 7.71875 26.1564 9.49471 21.1767 12.8221C16.1969 16.1494 12.3157 20.8787 10.0238 26.4119C7.73187 31.945 7.1322 38.0336 8.30061 43.9076C9.46902 49.7816 12.353 55.1772 16.5879 59.4121C20.8228 63.647 26.2184 66.531 32.0924 67.6994C37.9664 68.8678 44.055 68.2681 49.5881 65.9762C55.1213 63.6843 59.8506 59.8031 63.178 54.8234C66.5053 49.8436 68.2813 43.9891 68.2813 38C68.2718 29.9718 65.0785 22.2751 59.4017 16.5983C53.7249 10.9215 46.0282 7.72818 38 7.71875ZM61.0583 51.4841H50.4361L47.3249 47.2031L51.2703 35.7081L56.3172 34.0723L64.6119 40.4344C64.2573 44.3347 63.0438 48.1082 61.0583 51.4841ZM25.5639 51.4841H14.9417C12.9584 48.1077 11.7468 44.3343 11.3941 40.4344L19.6888 34.0723L24.7356 35.7081L28.6752 47.2031L25.5639 51.4841ZM15.1406 24.1716L17.29 31.4183L11.3525 35.9723C11.667 31.7951 12.965 27.7514 15.1406 24.1716ZM31.9319 45.7188L28.2477 34.9897L38 28.2862L47.7524 34.9897L44.0681 45.7188H31.9319ZM58.707 31.4183L60.8594 24.1716C63.034 27.7517 64.331 31.7953 64.6445 35.9723L58.707 31.4183ZM58.2142 20.5467L55.2188 30.682L50.1719 32.3237L39.7813 25.1987V19.9381L48.9547 13.6325C52.5072 15.2367 55.6671 17.5962 58.2142 20.5467ZM44.8044 12.1719L38 16.8388L31.1956 12.1719C35.6562 11.0002 40.3438 11.0002 44.8044 12.1719ZM27.0483 13.6295L36.2188 19.9381V25.1869L25.8281 32.3119L20.7813 30.6702L17.7858 20.5467C20.3341 17.5955 23.495 15.235 27.0483 13.6295ZM17.4414 55.0466H25.2136L27.9419 62.7653C23.8605 61.0945 20.254 58.4434 17.4414 55.0466ZM32.1902 64.0805L28.4644 53.5533L31.5697 49.2812H44.4303L47.5356 53.5533L43.8099 64.0805C39.9834 64.9315 36.0166 64.9315 32.1902 64.0805ZM48.0581 62.7505L50.7864 55.0317H58.5586C55.7461 58.4286 52.1395 61.0797 48.0581 62.7505Z" fill="#BFA069"></path> </svg> 