<?xml version="1.0" encoding="UTF-8"?> <svg xmlns="http://www.w3.org/2000/svg" width="76" height="76" viewBox="0 0 76 76" fill="none"> <path d="M38 50.6498C40.875 50.6498 43.3191 49.6432 45.3324 47.6299C47.3457 45.6166 48.3515 43.1733 48.35 40.2998C48.35 37.4248 47.3434 34.9807 45.3301 32.9674C43.3168 30.9541 40.8735 29.9483 38 29.9498C35.125 29.9498 32.6809 30.9564 30.6676 32.9697C28.6543 34.983 27.6485 37.4263 27.65 40.2998C27.65 43.1748 28.6566 45.6189 30.6699 47.6322C32.6832 49.6455 35.1265 50.6513 38 50.6498ZM38 46.0498C36.39 46.0498 35.0292 45.494 33.9175 44.3823C32.8058 43.2706 32.25 41.9098 32.25 40.2998C32.25 38.6898 32.8058 37.329 33.9175 36.2173C35.0292 35.1056 36.39 34.5498 38 34.5498C39.61 34.5498 40.9708 35.1056 42.0825 36.2173C43.1942 37.329 43.75 38.6898 43.75 40.2998C43.75 41.9098 43.1942 43.2706 42.0825 44.3823C40.9708 45.494 39.61 46.0498 38 46.0498ZM19.6 58.6998C18.335 58.6998 17.2517 58.249 16.3501 57.3474C15.4485 56.4458 14.9985 55.3633 15 54.0998V26.4998C15 25.2348 15.4508 24.1515 16.3524 23.2499C17.254 22.3483 18.3365 21.8983 19.6 21.8998H26.845L31.1 17.2998H44.9L49.155 21.8998H56.4C57.665 21.8998 58.7483 22.3506 59.6499 23.2522C60.5515 24.1538 61.0015 25.2363 61 26.4998V54.0998C61 55.3648 60.5492 56.4481 59.6476 57.3497C58.746 58.2513 57.6635 58.7013 56.4 58.6998H19.6ZM56.4 54.0998V26.4998H47.085L42.8875 21.8998H33.1125L28.915 26.4998H19.6V54.0998H56.4Z" fill="#BFA069"></path> </svg> 