<?xml version="1.0" encoding="UTF-8"?> <svg xmlns="http://www.w3.org/2000/svg" width="76" height="76" viewBox="0 0 76 76" fill="none"> <path d="M37.9999 50.0006C20.7199 50.0006 17.6599 32.7806 17.1199 19.1186C16.9669 15.3206 16.8919 13.4186 18.3199 11.6636C19.7449 9.90558 21.4519 9.61758 24.8689 9.04158C29.2094 8.33021 33.6016 7.98201 37.9999 8.00058C43.3519 8.00058 47.7589 8.47158 51.1309 9.04158C54.5479 9.61758 56.2549 9.90558 57.6829 11.6636C59.1109 13.4216 59.0329 15.3206 58.8829 19.1186C58.3429 32.7776 55.2829 50.0006 38.0029 50.0006H37.9999Z" stroke="#BFA069" stroke-width="3"></path> <path d="M38 50.0006V59.0006" stroke="#BFA069" stroke-width="3" stroke-linecap="round"></path> <path d="M48.5 68.0006H27.5L28.52 62.9126C28.6559 62.2328 29.023 61.621 29.559 61.1813C30.095 60.7415 30.7667 60.501 31.46 60.5006H44.54C45.2333 60.501 45.905 60.7415 46.441 61.1813C46.977 61.621 47.3441 62.2328 47.48 62.9126L48.5 68.0006Z" stroke="#BFA069" stroke-width="3" stroke-linecap="round" stroke-linejoin="round"></path> <path d="M59 17.0005L61.847 17.9485C64.817 18.9385 66.302 19.4335 67.151 20.6125C68 21.7915 68 23.3575 68 26.4865V26.7055C68 29.2855 68 30.5785 67.379 31.6345C66.758 32.6905 65.627 33.3175 63.371 34.5745L54.5 39.5005M17 17.0005L14.153 17.9485C11.183 18.9385 9.698 19.4335 8.849 20.6125C8 21.7915 8 23.3605 8 26.4865V26.7055C8 29.2855 8 30.5785 8.621 31.6345C9.242 32.6905 10.373 33.3175 12.629 34.5745L21.5 39.5005M35.438 20.0695C36.578 18.0205 37.148 17.0005 38 17.0005C38.852 17.0005 39.422 18.0205 40.562 20.0695L40.856 20.5975C41.18 21.1795 41.342 21.4675 41.594 21.6595C41.849 21.8515 42.164 21.9235 42.794 22.0645L43.364 22.1965C45.578 22.6975 46.685 22.9465 46.949 23.7925C47.213 24.6415 46.457 25.5235 44.948 27.2875L44.558 27.7435C44.129 28.2445 43.913 28.4935 43.817 28.8055C43.721 29.1175 43.754 29.4505 43.817 30.1195L43.877 30.7285C44.105 33.0835 44.219 34.2625 43.532 34.7845C42.842 35.3065 41.804 34.8295 39.731 33.8755L39.197 33.6295C38.606 33.3595 38.312 33.2245 38 33.2245C37.688 33.2245 37.394 33.3595 36.803 33.6295L36.269 33.8755C34.196 34.8325 33.158 35.3065 32.468 34.7845C31.778 34.2625 31.895 33.0835 32.123 30.7285L32.183 30.1195C32.246 29.4505 32.279 29.1175 32.183 28.8055C32.087 28.4965 31.871 28.2445 31.442 27.7435L31.052 27.2875C29.543 25.5235 28.787 24.6415 29.051 23.7925C29.315 22.9465 30.422 22.6975 32.636 22.1965L33.206 22.0645C33.836 21.9235 34.151 21.8545 34.406 21.6595C34.658 21.4675 34.82 21.1795 35.144 20.5975L35.438 20.0695Z" stroke="#BFA069" stroke-width="3"></path> <path d="M56 68.0006H20" stroke="#BFA069" stroke-width="3" stroke-linecap="round"></path> </svg> 