<?xml version="1.0" encoding="UTF-8"?> <!-- Generator: Adobe Illustrator 27.6.1, SVG Export Plug-In . SVG Version: 6.00 Build 0) --> <svg xmlns="http://www.w3.org/2000/svg" xmlns:xlink="http://www.w3.org/1999/xlink" id="Слой_1" x="0px" y="0px" viewBox="0 0 81 109" style="enable-background:new 0 0 81 109;" xml:space="preserve"> <style type="text/css"> .st0{clip-path:url(#SVGID_00000155852327924131412200000016778797589820046983_);} .st1{fill:#005794;} .st2{fill:#AF8C52;} .st3{fill:#B09058;} </style> <g> <defs> <rect id="SVGID_1_" y="0" width="81" height="109"></rect> </defs> <clipPath id="SVGID_00000103267428518474545570000011180672245753917621_"> <use xlink:href="#SVGID_1_" style="overflow:visible;"></use> </clipPath> <g style="clip-path:url(#SVGID_00000103267428518474545570000011180672245753917621_);"> <path class="st1" d="M45.4,24.6C48,18,45.1,13.9,42,14.1c-2.9,0.2-6.1,3.6-7,9.8c-0.8,0.1-1.7,0.3-2.5,0.5 c-4.6,1.1-14.2,6.5-13.1,16.9c0.5,4.8,5.5,6.3,8.5,5.1c2.1-0.8,3.4-2.6,3.5-4.2c0,0-3.2,0.7-4.4-2.9c-1-3.3,0.7-10.5,7.8-12.5 c0,0.6,0,1.1,0,1.8c0.1,1.8,0.3,3.2,0.5,4.6C33,34.5,31,35.4,31,35.4l0,3.7c0,0,2.1-1,4.7-2.9c0.3,2.4,0.5,5.4,0.4,10.3 C36,53,35.5,56.9,34,59.5c-2.4-0.9-5.3-2.1-7-2.2c-2.6-0.2-4.8,1-4.9,3.3c-0.1,1.3,0.3,2.9,2.6,4C27,65.9,31,66,35,62.4 c2.2,1.1,4.9,2.3,7.7,2.7c4.2,0.6,15.2-1.9,18.3-14.4C64.5,36.6,54.1,27.2,45.4,24.6L45.4,24.6z M41.9,18.4 c1.8,0.2,2.3,2.9,1.5,5.8c-1.7-0.3-3.7-0.5-5.9-0.5C38.4,20.1,40.3,18.2,41.9,18.4z M37.3,30.6c-0.2-1.5-0.2-3-0.1-4.2 c1.9-0.2,3.6,0,5.2,0.3c-0.1,0.2-0.3,0.5-0.4,0.7c-1,1.6-2.7,3.1-4.6,4.4C37.4,31.4,37.3,31,37.3,30.6L37.3,30.6z M30.7,62.9 c-2.5,1.5-4.9-0.1-4.9-1.5c0-1.8,2-2.7,4.9-1.4c0.5,0.2,1.2,0.7,2.2,1.2C32.2,61.8,31.5,62.4,30.7,62.9z M51.2,54.9 c-2.6,4.5-8.3,7.6-14.4,5.7c1.4-1.7,3-4.3,5.1-8.9c3-6.6,4.1-12.1,4.1-12.1s-5.3-0.8-7.7-5.5c2.2-1.9,4.4-4.2,5.9-6.9 c5.3,2,9,6.9,9.8,13.4C54.5,45,54.2,49.8,51.2,54.9L51.2,54.9z"></path> <path class="st2" d="M34.1,0l1.4,4.4h4.6l-3.7,2.8l1.4,4.4l-3.7-2.7l-3.7,2.7l1.4-4.4l-3.7-2.8h4.6L34.1,0z"></path> <path class="st2" d="M46.9,0l1.4,4.4h4.6l-3.7,2.8l1.4,4.4l-3.7-2.7l-3.7,2.7l1.4-4.4l-3.7-2.8h4.6L46.9,0z"></path> <path class="st3" d="M58.7,103l-2.7,5.9H57l0.5-1.2h2.7l0.5,1.2h1.1l-2.7-5.9H58.7L58.7,103z M57.9,106.9l0.9-2.1l0.9,2.1H57.9 L57.9,106.9z"></path> <path class="st3" d="M24.7,103l-2.5,3.2l-2.5-3.2l-0.4,0v5.9h1v-3.6l1.7,2.1h0.4l1.7-2.1v3.6h1V103L24.7,103z"></path> <path class="st3" d="M30.6,103c-1.8,0-3,1.3-3,3c0,1.7,1.3,3,3,3c1.8,0,3-1.3,3-3C33.6,104.3,32.3,103,30.6,103z M30.6,108.1 c-1.1,0-2-0.8-2-2.1c0-1.3,0.8-2.1,2-2.1c1.1,0,2,0.8,2,2.1C32.5,107.3,31.7,108.1,30.6,108.1z"></path> <path class="st3" d="M38.4,109c1.1,0,2-0.5,2.5-1.3l-0.7-0.6c-0.3,0.7-1,1-1.8,1c-1.1,0-2-0.8-2-2.1c0-1.3,0.8-2.1,2-2.1 c0.8,0,1.5,0.4,1.8,1l0.7-0.6c-0.5-0.8-1.4-1.3-2.5-1.3c-1.8,0-3,1.3-3,3C35.4,107.7,36.7,109,38.4,109L38.4,109z"></path> <path class="st3" d="M47.8,103.1h-1.2l-2.3,2.6v-2.6h-1v5.8h1v-2.8l2.5,2.8H48l-2.7-3.1L47.8,103.1z"></path> <path class="st3" d="M53.4,105.5c0.2-0.2,0.2-0.5,0.2-0.9c0-0.9-0.6-1.5-1.8-1.6h-1.7v5.8h2.1c1.5,0,2.1-0.7,2.1-1.8 C54.4,106.4,54.1,105.8,53.4,105.5L53.4,105.5z M51.2,104h0.6c0.6,0,0.8,0.3,0.8,0.7s-0.3,0.7-0.8,0.7h-0.6V104L51.2,104z M52.2,108h-1v-1.8h1c0.8,0,1.2,0.3,1.2,0.9C53.4,107.7,53.1,108,52.2,108z"></path> <path class="st1" d="M16.6,94.4H0.3c-0.2,0-0.3-0.1-0.3-0.3V80.2c0-0.2,0.1-0.3,0.3-0.3h1.3C1.9,79.9,2,80,2,80.2v12.4h5.5V80.2 c0-0.2,0.1-0.3,0.3-0.3h1.3c0.2,0,0.3,0.1,0.3,0.3v12.4H15V80.2c0-0.2,0.1-0.3,0.3-0.3h1.3c0.2,0,0.3,0.1,0.3,0.3v13.9 C16.9,94.3,16.8,94.4,16.6,94.4L16.6,94.4z"></path> <path class="st1" d="M23.1,87.8v6.3c0,0.2-0.1,0.3-0.3,0.3h-1.3c-0.2,0-0.3-0.1-0.3-0.3V80.2c0-0.2,0.1-0.3,0.3-0.3h1.3 c0.2,0,0.3,0.1,0.3,0.3v5.7H27l3.1-5.7c0.1-0.2,0.3-0.3,0.5-0.3h1.5c0.2,0,0.3,0.1,0.2,0.3l-3.6,6.5l4,7.4c0.1,0.2,0,0.3-0.2,0.3 H31c-0.2,0-0.4-0.1-0.5-0.3l-3.4-6.3L23.1,87.8L23.1,87.8z"></path> <path class="st1" d="M35.7,91v-7.7c0-2.4,1.2-3.6,3.7-3.6h5.2c2.5,0,3.7,1.2,3.7,3.6V91c0,2.4-1.2,3.6-3.7,3.6h-5.2 C36.9,94.6,35.7,93.4,35.7,91z M46.3,91v-7.7c0-1.2-0.6-1.8-1.8-1.8h-5.2c-1.2,0-1.8,0.6-1.8,1.8V91c0,1.2,0.6,1.8,1.8,1.8h5.2 C45.8,92.8,46.3,92.2,46.3,91z"></path> <path class="st1" d="M51.3,92.8h0.5c0.9,0,1.4-0.5,1.7-1.6l2.4-11c0-0.2,0.2-0.3,0.5-0.3h7.8c0.2,0,0.3,0.1,0.3,0.3v13.9 c0,0.2-0.1,0.3-0.3,0.3h-1.3c-0.2,0-0.3-0.1-0.3-0.3V81.7h-5l-2.1,9.5c-0.3,1.2-0.7,2.1-1.2,2.6c-0.6,0.5-1.4,0.8-2.4,0.8h-0.5 c-0.2,0-0.3-0.1-0.3-0.3v-1.2C51,92.9,51.1,92.8,51.3,92.8L51.3,92.8z"></path> <path class="st1" d="M77.5,90.7h-6.4l-1.2,3.4c-0.1,0.2-0.3,0.3-0.5,0.3h-1.5c-0.2,0-0.3-0.1-0.2-0.3l5.4-13.9 c0.1-0.2,0.3-0.3,0.5-0.3H75c0.2,0,0.4,0.1,0.5,0.3L81,94.1c0.1,0.2,0,0.3-0.2,0.3h-1.5c-0.3,0-0.4-0.1-0.5-0.3L77.5,90.7z M71.8,88.8h5l-2.5-6.6h-0.1L71.8,88.8z"></path> </g> </g> </svg> 