<?xml version="1.0" encoding="UTF-8"?> <svg xmlns="http://www.w3.org/2000/svg" width="40" height="40" viewBox="0 0 40 40" fill="none"> <path d="M25.1217 3.33398H14.895C5.55501 3.33398 3.33334 5.55565 3.33334 14.879V25.1056C3.33334 34.444 5.53834 36.6673 14.8783 36.6673H25.105C34.4433 36.6673 36.6667 34.4623 36.6667 25.1223V14.8957C36.6667 5.55565 34.4617 3.33398 25.1217 3.33398ZM30.2433 27.1173H27.8117C26.8917 27.1173 26.615 26.3723 24.965 24.7223C23.525 23.334 22.9167 23.1607 22.5517 23.1607C22.0483 23.1607 21.91 23.299 21.91 23.994V26.1807C21.91 26.7723 21.7183 27.119 20.1733 27.119C18.6739 27.0182 17.2199 26.5627 15.931 25.7899C14.6421 25.0171 13.5553 23.9491 12.76 22.674C10.872 20.324 9.55825 17.5659 8.92334 14.619C8.92334 14.254 9.06168 13.924 9.75668 13.924H12.1867C12.8117 13.924 13.0367 14.2023 13.2817 14.844C14.4617 18.3173 16.475 21.3373 17.2917 21.3373C17.605 21.3373 17.7417 21.199 17.7417 20.4173V16.8407C17.6383 15.209 16.7717 15.0707 16.7717 14.4806C16.7828 14.325 16.8541 14.1799 16.9705 14.0759C17.0869 13.972 17.2391 13.9175 17.395 13.924H21.215C21.7367 13.924 21.91 14.184 21.91 14.809V19.6357C21.91 20.1573 22.135 20.3307 22.2917 20.3307C22.605 20.3307 22.8467 20.1573 23.42 19.584C24.6514 18.0822 25.6576 16.4091 26.4067 14.6173C26.4832 14.4021 26.6281 14.2178 26.8192 14.0926C27.0103 13.9675 27.2371 13.9082 27.465 13.924H29.8967C30.625 13.924 30.78 14.289 30.625 14.809C29.7408 16.7897 28.6468 18.6699 27.3617 20.4173C27.1 20.8173 26.995 21.0257 27.3617 21.494C27.6033 21.859 28.455 22.5707 29.0283 23.2473C29.8615 24.0784 30.5534 25.0399 31.0767 26.094C31.285 26.7707 30.9367 27.1173 30.2433 27.1173Z" fill="white"></path> </svg> 