<?xml version="1.0" encoding="UTF-8"?> <svg xmlns="http://www.w3.org/2000/svg" width="40" height="40" viewBox="0 0 40 40" fill="none"> <path d="M34.5161 6.09148C34.5161 6.09148 37.7538 4.82898 37.484 7.89505C37.3941 9.15757 36.5847 13.5763 35.9551 18.3558L33.7966 32.5139C33.7966 32.5139 33.6167 34.588 31.9978 34.9487C30.3789 35.3094 27.9507 33.6862 27.5009 33.3255C27.1412 33.055 20.7557 28.9969 18.5072 27.013C17.8776 26.4719 17.1581 25.3897 18.5971 24.1272L28.0406 15.1094C29.1198 14.0272 30.1991 11.5022 25.7022 14.5683L13.1109 23.1353C13.1109 23.1353 11.6719 24.0371 8.97383 23.2255L3.12785 21.4219C3.12785 21.4219 0.969342 20.0692 4.65679 18.7165C13.6506 14.4781 24.7129 10.1495 34.5161 6.09148Z" fill="white"></path> </svg> 