<?xml version="1.0" encoding="UTF-8"?> <svg xmlns="http://www.w3.org/2000/svg" width="40" height="40" viewBox="0 0 40 40" fill="none"> <path d="M33.6 11.3998C28.8 3.99976 19 1.79976 11.4 6.39976C4 10.9998 1.6 20.9998 6.4 28.3998L6.8 28.9998L5.2 34.9998L11.2 33.3998L11.8 33.7998C14.4 35.1998 17.2 35.9998 20 35.9998C23 35.9998 26 35.1998 28.6 33.5998C36 28.7998 38.2 18.9998 33.6 11.3998ZM29.4 26.7998C28.6 27.9998 27.6 28.7998 26.2 28.9998C25.4 28.9998 24.4 29.3998 20.4 27.7998C17 26.1998 14.2 23.5998 12.2 20.5998C11 19.1998 10.4 17.3998 10.2 15.5998C10.2 13.9998 10.8 12.5998 11.8 11.5998C12.2 11.1998 12.6 10.9998 13 10.9998H14C14.4 10.9998 14.8 10.9998 15 11.7998C15.4 12.7998 16.4 15.1998 16.4 15.3998C16.6 15.5998 16.6 15.9998 16.4 16.1998C16.6 16.5998 16.4 16.9998 16.2 17.1998C16 17.3998 15.8 17.7998 15.6 17.9998C15.2 18.1998 15 18.5998 15.2 18.9998C16 20.1998 17 21.3998 18 22.3998C19.2 23.3998 20.4 24.1998 21.8 24.7998C22.2 24.9998 22.6 24.9998 22.8 24.5998C23 24.1998 24 23.1998 24.4 22.7998C24.8 22.3998 25 22.3998 25.4 22.5998L28.6 24.1998C29 24.3998 29.4 24.5998 29.6 24.7998C29.8 25.3998 29.8 26.1998 29.4 26.7998Z" fill="white"></path> </svg> 