<?xml version="1.0" encoding="UTF-8"?> <svg xmlns="http://www.w3.org/2000/svg" width="20" height="20" viewBox="0 0 20 20" fill="none"> <path fill-rule="evenodd" clip-rule="evenodd" d="M3.33333 5C3.33333 3.15905 4.82572 1.66666 6.66667 1.66666H13.3333C15.1743 1.66666 16.6667 3.15905 16.6667 5V15C16.6667 16.8409 15.1743 18.3333 13.3333 18.3333H6.66667C4.82572 18.3333 3.33333 16.8409 3.33333 15V5ZM6.66667 3.33333C5.74619 3.33333 5 4.07952 5 5V15C5 15.9205 5.74619 16.6667 6.66667 16.6667H13.3333C14.2538 16.6667 15 15.9205 15 15V5C15 4.07952 14.2538 3.33333 13.3333 3.33333H6.66667Z" fill="black"></path> <path fill-rule="evenodd" clip-rule="evenodd" d="M6.66667 1.66666H6.75926C7.79473 1.66666 8.66478 2.37487 8.91147 3.33333H11.0885C11.3352 2.37487 12.2053 1.66666 13.2407 1.66666H13.3333V3.33333H13.2407C12.9339 3.33333 12.6852 3.58206 12.6852 3.88889C12.6852 4.50254 12.1877 5 11.5741 5H8.42593C7.81228 5 7.31482 4.50254 7.31482 3.88889C7.31482 3.58206 7.06609 3.33333 6.75926 3.33333H6.66667V1.66666Z" fill="black"></path> </svg> 