<?xml version="1.0" encoding="UTF-8"?> <svg xmlns="http://www.w3.org/2000/svg" width="76" height="76" viewBox="0 0 76 76" fill="none"> <path d="M38 38C39.375 38 40.5525 37.51 41.5325 36.53C42.5125 35.55 43.0017 34.3733 43 33C43 31.625 42.51 30.4475 41.53 29.4675C40.55 28.4875 39.3733 27.9983 38 28C36.625 28 35.4475 28.49 34.4675 29.47C33.4875 30.45 32.9983 31.6267 33 33C33 34.375 33.49 35.5525 34.47 36.5325C35.45 37.5125 36.6267 38.0017 38 38ZM38 56.375C43.0833 51.7083 46.8542 47.4683 49.3125 43.655C51.7708 39.8417 53 36.4567 53 33.5C53 28.9583 51.5517 25.24 48.655 22.345C45.7583 19.45 42.2067 18.0017 38 18C33.7917 18 30.2392 19.4483 27.3425 22.345C24.4458 25.2417 22.9983 28.96 23 33.5C23 36.4583 24.2292 39.8442 26.6875 43.6575C29.1458 47.4708 32.9167 51.71 38 56.375ZM38 63C31.2917 57.2917 26.2817 51.99 22.97 47.095C19.6583 42.2 18.0017 37.6683 18 33.5C18 27.25 20.0108 22.2708 24.0325 18.5625C28.0542 14.8542 32.71 13 38 13C43.2917 13 47.9483 14.8542 51.97 18.5625C55.9917 22.2708 58.0017 27.25 58 33.5C58 37.6667 56.3433 42.1983 53.03 47.095C49.7167 51.9917 44.7067 57.2933 38 63Z" fill="#BFA069"></path> </svg> 