<?xml version="1.0" encoding="UTF-8"?> <svg xmlns="http://www.w3.org/2000/svg" width="20" height="20" viewBox="0 0 20 20" fill="none"> <path fill-rule="evenodd" clip-rule="evenodd" d="M9.99999 3.33333C8.68791 3.33333 7.42049 3.88124 6.47918 4.87145C5.5365 5.8631 4.99999 7.21668 4.99999 8.63636C4.99999 10.7033 6.28025 12.721 7.70255 14.3003C8.39906 15.0737 9.09809 15.7072 9.62365 16.1474C9.76282 16.264 9.88939 16.3666 9.99999 16.4544C10.1106 16.3666 10.2372 16.264 10.3763 16.1474C10.9019 15.7072 11.6009 15.0737 12.2974 14.3003C13.7197 12.721 15 10.7033 15 8.63636C15 7.21668 14.4635 5.8631 13.5208 4.87145C12.5795 3.88124 11.3121 3.33333 9.99999 3.33333ZM9.99999 17.5C9.52151 18.1823 9.5213 18.1821 9.52108 18.182L9.51898 18.1805L9.51432 18.1772L9.49879 18.1662C9.48572 18.1568 9.46726 18.1435 9.44376 18.1264C9.39678 18.0922 9.32964 18.0426 9.24521 17.9784C9.07644 17.8502 8.83812 17.6635 8.55341 17.425C7.98522 16.9491 7.22591 16.2615 6.46409 15.4156C4.96972 13.7563 3.33332 11.3421 3.33332 8.63636C3.33332 6.80112 4.02597 5.03308 5.27122 3.72314C6.51783 2.41177 8.21787 1.66666 9.99999 1.66666C11.7821 1.66666 13.4821 2.41177 14.7288 3.72314C15.974 5.03308 16.6667 6.80112 16.6667 8.63636C16.6667 11.3421 15.0303 13.7563 13.5359 15.4156C12.7741 16.2615 12.0148 16.9491 11.4466 17.425C11.1619 17.6635 10.9235 17.8502 10.7548 17.9784C10.6703 18.0426 10.6032 18.0922 10.5562 18.1264C10.5327 18.1435 10.5143 18.1568 10.5012 18.1662L10.4857 18.1772L10.481 18.1805L10.4795 18.1816C10.4792 18.1817 10.4785 18.1823 9.99999 17.5ZM9.99999 17.5L10.4785 18.1823C10.1913 18.3837 9.80827 18.3834 9.52108 18.182L9.99999 17.5Z" fill="#1E1E1E"></path> <path fill-rule="evenodd" clip-rule="evenodd" d="M9.99999 6.66667C9.07951 6.66667 8.33332 7.41286 8.33332 8.33333C8.33332 9.25381 9.07951 10 9.99999 10C10.9205 10 11.6667 9.25381 11.6667 8.33333C11.6667 7.41286 10.9205 6.66667 9.99999 6.66667ZM6.66665 8.33333C6.66665 6.49238 8.15904 5 9.99999 5C11.8409 5 13.3333 6.49238 13.3333 8.33333C13.3333 10.1743 11.8409 11.6667 9.99999 11.6667C8.15904 11.6667 6.66665 10.1743 6.66665 8.33333Z" fill="#1E1E1E"></path> </svg> 