<?xml version="1.0" encoding="UTF-8"?> <svg xmlns="http://www.w3.org/2000/svg" width="107" height="143" viewBox="0 0 107 143" fill="none"> <g clip-path="url(#clip0_128_206)"> <path d="M59.9539 32.3135C63.3638 23.6224 59.579 18.2488 55.4469 18.4908C51.6672 18.7125 47.3547 23.2043 46.2382 31.3477C45.1206 31.4875 44.003 31.6839 42.9027 31.9521C36.7646 33.4504 24.2041 40.4479 25.5641 54.1623C26.1846 60.4248 32.8321 62.4222 36.79 60.8145C39.5122 59.709 41.3165 57.3442 41.453 55.3073C41.453 55.3073 37.1935 56.2893 35.7061 51.4947C34.3572 47.1477 36.6708 37.6871 45.9651 35.1481C45.957 35.8912 45.9712 36.6556 46.014 37.4452C46.1424 39.8344 46.3675 41.7012 46.6141 43.5285C43.5313 45.3224 40.9324 46.4198 40.9324 46.4198L40.9792 51.274C40.9792 51.274 43.6912 49.8993 47.1265 47.4109C47.5014 50.5715 47.7949 54.4549 47.7032 60.9633C47.5819 69.5421 46.8678 74.6535 44.8934 78.0864C41.7719 76.8594 37.9402 75.346 35.6215 75.1678C32.2106 74.9066 29.3153 76.5132 29.1757 79.5047C29.0942 81.249 29.5465 83.2454 32.5682 84.8115C35.7081 86.4384 40.9018 86.5528 46.2534 81.8868C49.1519 83.3831 52.7359 84.9178 56.4157 85.4139C62.0007 86.1671 76.5141 82.9589 80.631 66.4584C85.2186 48.074 71.5201 35.6493 59.955 32.3115L59.9539 32.3135ZM55.4061 24.1185C57.8074 24.4171 58.4462 27.8764 57.3836 31.7092C55.1178 31.2819 52.4435 31.0289 49.6531 31.0977C50.7789 26.3892 53.2402 23.8502 55.4061 24.1185ZM49.215 40.1492C49.0031 38.1285 48.9868 36.2729 49.1182 34.5934C51.5715 34.3737 53.8922 34.5417 56.0459 35.0469C55.8727 35.3719 55.6873 35.6938 55.4886 36.0107C54.1642 38.1326 51.8598 40.0935 49.4697 41.7295C49.3617 41.2264 49.2721 40.703 49.214 40.1502L49.215 40.1492ZM40.4913 82.4588C37.1945 84.4562 34.0047 82.2806 33.9925 80.5181C33.9752 78.1168 36.6708 77.0295 40.4108 78.6766C41.0169 78.9439 42.0072 79.5331 43.2766 80.2589C42.485 81.0911 41.564 81.8089 40.4913 82.4588ZM67.6691 71.991C64.2145 77.8404 56.699 81.9314 48.6007 79.4622C50.4335 77.233 52.58 73.7829 55.2757 67.7684C59.1858 59.0459 60.6263 51.929 60.6263 51.929C60.6263 51.929 53.5652 50.944 50.5089 44.7494C53.3564 42.3126 56.2609 39.2624 58.3127 35.7201C65.3402 38.2986 70.1804 44.7717 71.2471 53.3342C71.9541 59.0095 71.6098 65.3195 67.6691 71.992V71.991Z" fill="white"></path> <path d="M45.0941 0L46.9564 5.73097H52.9876L48.1035 9.39268L49.971 15.1793L45.0941 11.6685L40.2101 15.2219L42.0805 9.3856L37.2016 5.73097H43.2338L45.0941 0Z" fill="#AF8C52"></path> <path d="M61.908 0L63.7682 5.73097H69.7984L64.9195 9.39268L66.7899 15.1793L61.908 11.6685L57.029 15.2219L58.8965 9.3856L54.0145 5.73097H60.0477L61.908 0Z" fill="#AF8C52"></path> <path d="M77.5543 135.161L73.9601 142.886H75.3517L76.0384 141.346H79.5582L80.2449 142.886H81.6365L78.0423 135.161H77.5564H77.5543ZM76.5437 140.21L77.7978 137.397L79.0519 140.21H76.5447H76.5437Z" fill="#B09058"></path> <path d="M32.5703 135.161L29.2144 139.317L25.8586 135.161L25.3655 135.163V142.886H26.6797V138.187L28.9363 140.991H29.4925L31.7481 138.187V142.886H33.0634V135.163L32.5703 135.161Z" fill="#B09058"></path> <path d="M40.3568 135.161C38.0421 135.161 36.3846 136.808 36.3846 139.08C36.3846 141.352 38.0421 142.999 40.3568 142.999C42.6714 142.999 44.329 141.352 44.329 139.08C44.329 136.808 42.6714 135.161 40.3568 135.161ZM40.3568 141.806C38.8418 141.806 37.7558 140.727 37.7558 139.08C37.7558 137.433 38.8418 136.354 40.3568 136.354C41.8717 136.354 42.9577 137.433 42.9577 139.08C42.9577 140.727 41.8717 141.806 40.3568 141.806Z" fill="#B09058"></path> <path d="M50.7452 143C52.2265 143 53.4348 142.326 54.1133 141.244L53.1281 140.468C52.688 141.323 51.7874 141.806 50.7462 141.806C49.2313 141.806 48.1453 140.727 48.1453 139.08C48.1453 137.433 49.2313 136.354 50.7462 136.354C51.7885 136.354 52.7155 136.817 53.1546 137.672L54.1133 136.918C53.4358 135.837 52.2275 135.161 50.7452 135.161C48.4306 135.161 46.773 136.808 46.773 139.08C46.773 141.352 48.4306 142.999 50.7452 142.999V143Z" fill="#B09058"></path> <path d="M63.1896 135.275H61.6095L58.5185 138.651V135.275H57.2032V142.886H58.5185V139.162L61.7623 142.886H63.4412L59.9234 138.841L63.1896 135.275Z" fill="#B09058"></path> <path d="M70.5492 138.459C70.7489 138.146 70.8477 137.761 70.8477 137.32C70.8477 136.088 70.0734 135.298 68.5096 135.276H66.3274V142.887H69.0791C71.0617 142.868 71.9011 142.019 71.9011 140.558C71.9011 139.531 71.4855 138.805 70.5482 138.46L70.5492 138.459ZM67.6427 136.412H68.4414C69.1912 136.412 69.5325 136.753 69.5325 137.321C69.5325 137.889 69.1912 138.23 68.4414 138.23H67.6427V136.413V136.412ZM69.0149 141.751H67.6427V139.366H69.0149C70.1295 139.366 70.5869 139.82 70.5869 140.558C70.5869 141.296 70.1295 141.751 69.0149 141.751Z" fill="#B09058"></path> <path d="M21.9455 123.862H0.411586C0.137535 123.862 0 123.726 0 123.453V105.19C0 104.918 0.137535 104.781 0.411586 104.781H2.19444C2.46849 104.781 2.60603 104.918 2.60603 105.19V121.409H9.875V105.19C9.875 104.918 10.0125 104.781 10.2866 104.781H12.0694C12.3435 104.781 12.481 104.918 12.481 105.19V121.409H19.75V105.19C19.75 104.918 19.8875 104.781 20.1616 104.781H21.9444C22.2185 104.781 22.356 104.918 22.356 105.19V123.453C22.356 123.726 22.2185 123.862 21.9444 123.862H21.9455Z" fill="white"></path> <path d="M30.4492 115.14V123.453C30.4492 123.726 30.3116 123.862 30.0376 123.862H28.2547C27.9807 123.862 27.8431 123.726 27.8431 123.453V105.19C27.8431 104.918 27.9807 104.781 28.2547 104.781H30.0376C30.3116 104.781 30.4492 104.918 30.4492 105.19V112.687H35.6612L39.7761 105.19C39.9034 104.918 40.1326 104.781 40.4617 104.781H42.3821C42.7112 104.781 42.8028 104.918 42.6561 105.19L37.8557 113.777L43.2053 123.454C43.3509 123.727 43.2603 123.863 42.9312 123.863H41.0108C40.6818 123.863 40.4525 123.727 40.3252 123.454L35.7988 115.141H30.4492V115.14Z" fill="white"></path> <path d="M47.1001 119.365V109.279C47.1001 106.099 48.7464 104.509 52.0381 104.509H58.8954C62.1871 104.509 63.8334 106.099 63.8334 109.279V119.365C63.8334 122.545 62.1881 124.136 58.8954 124.136H52.0381C48.7464 124.136 47.1001 122.545 47.1001 119.365ZM61.2274 119.365V109.279C61.2274 107.735 60.4501 106.962 58.8954 106.962H52.0381C50.4834 106.962 49.7061 107.734 49.7061 109.279V119.365C49.7061 120.91 50.4834 121.683 52.0381 121.683H58.8954C60.4491 121.683 61.2274 120.91 61.2274 119.365Z" fill="white"></path> <path d="M67.8107 121.682H68.4964C69.667 121.682 70.3984 121 70.6908 119.638L73.845 105.19C73.9 104.918 74.1282 104.781 74.5306 104.781H84.8447C85.1004 104.781 85.2288 104.918 85.2288 105.19V123.453C85.2288 123.726 85.0912 123.862 84.8172 123.862H83.0343C82.7603 123.862 82.6227 123.726 82.6227 123.453V107.234H76.0394L73.2958 119.637C72.9484 121.218 72.3993 122.363 71.6495 123.072C70.8997 123.78 69.8483 124.135 68.4954 124.135H67.8097C67.5357 124.135 67.3981 123.998 67.3981 123.726V122.09C67.3981 121.817 67.5357 121.681 67.8097 121.681L67.8107 121.682Z" fill="white"></path> <path d="M102.429 118.956H93.925L92.2787 123.454C92.1687 123.727 91.9405 123.863 91.5931 123.863H89.6727C89.3803 123.863 89.2886 123.727 89.3986 123.454L96.5311 105.191C96.6767 104.919 96.906 104.782 97.2167 104.782H99.1371C99.4478 104.782 99.676 104.919 99.8227 105.191L106.955 123.454C107.065 123.727 106.974 123.863 106.681 123.863H104.761C104.413 123.863 104.185 123.727 104.075 123.454L102.429 118.956ZM94.8847 116.503H101.468L98.2314 107.781H98.1214L94.8847 116.503Z" fill="white"></path> </g> <defs> <clipPath id="clip0_128_206"> <rect width="107" height="143" fill="white"></rect> </clipPath> </defs> </svg> 