<?xml version="1.0" encoding="UTF-8"?> <svg xmlns="http://www.w3.org/2000/svg" width="76" height="76" viewBox="0 0 76 76" fill="none"> <path d="M21.9286 29.6364C21.455 29.6364 21.0008 29.8231 20.6659 30.1556C20.331 30.488 20.1429 30.9389 20.1429 31.4091C20.1429 31.8792 20.331 32.3301 20.6659 32.6626C21.0008 32.995 21.455 33.1818 21.9286 33.1818H46.9286C47.4022 33.1818 47.8564 32.995 48.1913 32.6626C48.5261 32.3301 48.7143 31.8792 48.7143 31.4091C48.7143 30.9389 48.5261 30.488 48.1913 30.1556C47.8564 29.8231 47.4022 29.6364 46.9286 29.6364H21.9286ZM21.9286 36.7273C21.455 36.7273 21.0008 36.914 20.6659 37.2465C20.331 37.5789 20.1429 38.0298 20.1429 38.5V45.5909C20.1429 46.0611 20.331 46.512 20.6659 46.8444C21.0008 47.1769 21.455 47.3636 21.9286 47.3636H29.0714C29.545 47.3636 29.9992 47.1769 30.3341 46.8444C30.669 46.512 30.8571 46.0611 30.8571 45.5909V38.5C30.8571 38.0298 30.669 37.5789 30.3341 37.2465C29.9992 36.914 29.545 36.7273 29.0714 36.7273H21.9286ZM23.7143 43.8182V40.2727H27.2857V43.8182H23.7143ZM36.2143 36.7273C35.7407 36.7273 35.2865 36.914 34.9516 37.2465C34.6167 37.5789 34.4286 38.0298 34.4286 38.5C34.4286 38.9702 34.6167 39.4211 34.9516 39.7535C35.2865 40.086 35.7407 40.2727 36.2143 40.2727H46.9286C47.4022 40.2727 47.8564 40.086 48.1913 39.7535C48.5261 39.4211 48.7143 38.9702 48.7143 38.5C48.7143 38.0298 48.5261 37.5789 48.1913 37.2465C47.8564 36.914 47.4022 36.7273 46.9286 36.7273H36.2143ZM36.2143 43.8182C35.7407 43.8182 35.2865 44.0049 34.9516 44.3374C34.6167 44.6699 34.4286 45.1208 34.4286 45.5909C34.4286 46.0611 34.6167 46.512 34.9516 46.8444C35.2865 47.1769 35.7407 47.3636 36.2143 47.3636H46.9286C47.4022 47.3636 47.8564 47.1769 48.1913 46.8444C48.5261 46.512 48.7143 46.0611 48.7143 45.5909C48.7143 45.1208 48.5261 44.6699 48.1913 44.3374C47.8564 44.0049 47.4022 43.8182 46.9286 43.8182H36.2143ZM13 26.0909C13 24.2103 13.7525 22.4067 15.0921 21.0769C16.4316 19.7471 18.2485 19 20.1429 19H48.7143C50.6087 19 52.4255 19.7471 53.765 21.0769C55.1046 22.4067 55.8571 24.2103 55.8571 26.0909C57.7515 26.0909 59.5684 26.838 60.9079 28.1678C62.2474 29.4976 63 31.3012 63 33.1818V49.1364C63 51.4871 62.0593 53.7416 60.3849 55.4039C58.7104 57.0662 56.4394 58 54.0714 58H21.9286C19.5606 58 17.2895 57.0662 15.6151 55.4039C13.9407 53.7416 13 51.4871 13 49.1364V26.0909ZM54.0714 49.1364C53.5978 49.1364 53.1436 48.9496 52.8087 48.6171C52.4739 48.2847 52.2857 47.8338 52.2857 47.3636V26.0909C52.2857 25.1506 51.9094 24.2488 51.2397 23.5839C50.5699 22.919 49.6615 22.5455 48.7143 22.5455H20.1429C19.1957 22.5455 18.2872 22.919 17.6175 23.5839C16.9477 24.2488 16.5714 25.1506 16.5714 26.0909V49.1364C16.5714 50.5468 17.1358 51.8995 18.1405 52.8969C19.1452 53.8942 20.5078 54.4545 21.9286 54.4545H54.0714C55.4922 54.4545 56.8548 53.8942 57.8595 52.8969C58.8642 51.8995 59.4286 50.5468 59.4286 49.1364V33.1818C59.4286 32.2415 59.0523 31.3397 58.3825 30.6748C57.7127 30.0099 56.8043 29.6364 55.8571 29.6364V47.3636C55.8571 47.8338 55.669 48.2847 55.3341 48.6171C54.9992 48.9496 54.545 49.1364 54.0714 49.1364Z" fill="#BFA069"></path> </svg> 