<?xml version="1.0" encoding="UTF-8"?> <svg xmlns="http://www.w3.org/2000/svg" width="76" height="76" viewBox="0 0 76 76" fill="none"> <path d="M62.9497 29.6636C62.5485 23.7816 59.8805 18.2848 55.5075 14.3307C51.1345 10.3765 45.3977 8.27355 39.5052 8.4646C33.6126 8.65565 28.0241 11.1258 23.9165 15.3549C19.8088 19.584 17.5024 25.2421 17.4831 31.1377C17.4834 32.0369 17.5364 32.9352 17.6417 33.8282L13.0144 43.215C12.8315 43.5866 12.7449 43.9983 12.7626 44.4121C12.7802 44.8259 12.9015 45.2286 13.1154 45.5833C13.3293 45.938 13.6288 46.2333 13.9866 46.4421C14.3443 46.6508 14.7488 46.7663 15.1628 46.778C16.4254 46.8177 17.298 46.8442 17.9194 46.8442V49.3297C17.9194 57.0705 19.8298 61.5524 29.5471 61.5524L33.758 61.6912V66.9531C33.758 67.2161 33.8625 67.4683 34.0484 67.6543C34.2344 67.8402 34.4866 67.9447 34.7496 67.9447C35.0125 67.9447 35.2648 67.8402 35.4507 67.6543C35.6367 67.4683 35.7411 67.2161 35.7411 66.9531V60.7393C35.7413 60.482 35.6414 60.2346 35.4625 60.0496C35.2836 59.8646 35.0398 59.7563 34.7826 59.7477L29.5802 59.5759C22.0707 59.5759 19.9025 57.282 19.9025 49.3363V45.8261C19.9031 45.6878 19.8747 45.5508 19.8192 45.424C19.7637 45.2973 19.6823 45.1835 19.5802 45.0901C19.478 44.9967 19.3575 44.9257 19.2263 44.8817C19.0951 44.8377 18.9562 44.8217 18.8184 44.8346H18.6862C18.4879 44.8346 17.7739 44.8346 15.2157 44.7751C15.1327 44.774 15.0513 44.7516 14.9795 44.7099C14.9077 44.6682 14.8479 44.6087 14.8058 44.5371C14.7653 44.4655 14.744 44.3847 14.744 44.3024C14.744 44.2202 14.7653 44.1393 14.8058 44.0678L19.5588 34.4099C19.6452 34.2337 19.6774 34.0359 19.6513 33.8414C19.5322 32.934 19.4726 32.0198 19.4728 31.1047C19.4649 27.6309 20.3281 24.2106 21.9835 21.1566C23.6389 18.1026 26.0336 15.5124 28.9486 13.6229C31.8636 11.7335 35.2058 10.6051 38.6695 10.3409C42.1332 10.0767 45.6079 10.6853 48.7757 12.1109C51.9435 13.5364 54.7033 15.7335 56.8027 18.5012C58.902 21.2688 60.2739 24.5187 60.7929 27.9535C61.3119 31.3883 60.9613 34.8984 59.7733 38.1627C58.5853 41.427 56.5978 44.3414 53.9926 46.6392C53.8864 46.7325 53.8014 46.8474 53.7432 46.9763C53.6851 47.1051 53.6552 47.2449 53.6554 47.3862V66.8341C53.6537 66.9649 53.6781 67.0946 53.7273 67.2157C53.7765 67.3368 53.8495 67.4468 53.9419 67.5393C54.0343 67.6317 54.1444 67.7047 54.2655 67.7539C54.3866 67.8031 54.5163 67.8275 54.647 67.8257C54.91 67.8257 55.1622 67.7212 55.3482 67.5353C55.5341 67.3493 55.6386 67.0971 55.6386 66.8341V47.8225C58.1451 45.5409 60.1043 42.7231 61.3702 39.5789C62.6361 36.4348 63.176 33.0454 62.9497 29.6636Z" fill="#BFA069" stroke="#BFA069"></path> <path d="M55.6981 28.1828L51.7318 24.8776C51.5536 24.7292 51.3291 24.6479 51.0972 24.6479C50.8653 24.6479 50.6408 24.7292 50.4626 24.8776L46.4963 28.1828C46.3888 28.2636 46.2988 28.3654 46.2319 28.4821C46.165 28.5988 46.1225 28.7278 46.107 28.8614C46.0915 28.995 46.1033 29.1303 46.1418 29.2592C46.1803 29.3881 46.2446 29.5078 46.3308 29.611C46.4169 29.7143 46.5232 29.7989 46.6432 29.8598C46.7631 29.9206 46.8941 29.9565 47.0283 29.9651C47.1626 29.9737 47.2971 29.955 47.4239 29.91C47.5506 29.8649 47.6668 29.7946 47.7655 29.7033L50.1056 27.7598C50.1056 27.8127 50.1056 27.8655 50.1056 27.9184C50.0795 30.4045 49.068 32.7787 47.2933 34.52C45.5186 36.2612 43.1256 37.2273 40.6395 37.2061C38.1355 37.217 35.7286 36.2381 33.9431 34.4826C33.855 34.3753 33.7454 34.2876 33.6214 34.2253C33.4973 34.163 33.3615 34.1274 33.2229 34.1209C33.0842 34.1144 32.9457 34.1371 32.8163 34.1875C32.687 34.2379 32.5696 34.3149 32.4719 34.4136C32.3742 34.5122 32.2983 34.6303 32.2491 34.7601C32.1999 34.8899 32.1786 35.0286 32.1864 35.1673C32.1942 35.3059 32.2311 35.4413 32.2945 35.5648C32.358 35.6882 32.4467 35.797 32.5549 35.884C34.1547 37.4583 36.1808 38.5292 38.3828 38.9642C40.5847 39.3993 42.8658 39.1795 44.9442 38.332C47.0225 37.4845 48.8069 36.0464 50.0767 34.1956C51.3465 32.3449 52.046 30.1625 52.0888 27.9184C52.0888 27.8589 52.0888 27.8061 52.0888 27.7466L54.4355 29.7297C54.5342 29.8211 54.6504 29.8914 54.7772 29.9364C54.9039 29.9814 55.0384 30.0002 55.1727 29.9916C55.3069 29.9829 55.4379 29.9471 55.5579 29.8862C55.6778 29.8253 55.7841 29.7407 55.8703 29.6375C55.9564 29.5342 56.0207 29.4145 56.0592 29.2857C56.0977 29.1568 56.1095 29.0214 56.094 28.8878C56.0785 28.7542 56.036 28.6252 55.9691 28.5085C55.9022 28.3919 55.8122 28.2901 55.7047 28.2093L55.6981 28.1828Z" fill="#BFA069" stroke="#BFA069"></path> <path d="M34.6702 27.6471C34.5017 27.4458 34.2603 27.3195 33.9988 27.2959C33.7373 27.2724 33.4772 27.3535 33.2754 27.5215L31.008 29.4121C30.9623 29.0392 30.938 28.664 30.9353 28.2883C30.9213 25.7607 31.911 23.3308 33.6871 21.5324C35.4632 19.734 37.8805 18.714 40.4081 18.6965C41.6521 18.6944 42.884 18.9407 44.0316 19.4208C45.1792 19.901 46.2194 20.6054 47.0913 21.4927C47.2784 21.6689 47.5266 21.7655 47.7835 21.7622C48.0405 21.7589 48.2861 21.656 48.4687 21.4752C48.6513 21.2943 48.7565 21.0496 48.7622 20.7927C48.7679 20.5358 48.6737 20.2867 48.4993 20.0979C47.4437 19.0238 46.1843 18.1712 44.7949 17.59C43.4055 17.0088 41.9141 16.7108 40.4081 16.7134C37.3551 16.7326 34.4344 17.9621 32.2867 20.132C30.1391 22.302 28.9399 25.2353 28.9522 28.2883C28.9545 28.7035 28.9788 29.1184 29.0249 29.5311L26.6121 27.5479C26.4089 27.3952 26.1548 27.3264 25.9023 27.3557C25.6498 27.385 25.4182 27.5101 25.2553 27.7052C25.0924 27.9004 25.0106 28.1506 25.0269 28.4043C25.0433 28.6579 25.1564 28.8956 25.3429 29.0683L29.3092 32.3735C29.4873 32.522 29.7119 32.6032 29.9438 32.6032C30.1756 32.6032 30.4002 32.522 30.5784 32.3735L34.5446 29.0683C34.6482 28.9846 34.7339 28.8809 34.7965 28.7634C34.8591 28.6459 34.8974 28.517 34.9091 28.3844C34.9209 28.2517 34.9058 28.1181 34.8647 27.9914C34.8237 27.8647 34.7575 27.7476 34.6702 27.6471Z" fill="#BFA069" stroke="#BFA069"></path> </svg> 