<?xml version="1.0" encoding="UTF-8"?> <svg xmlns="http://www.w3.org/2000/svg" width="76" height="76" viewBox="0 0 76 76" fill="none"> <path d="M38 13C36.2252 13 34.2721 13.5192 32.6084 14.0212C30.9773 14.5173 29.7794 15.0288 29.7334 15.0423H29.6759L24.1636 16.9077L23.9834 16.9654C23.7408 17.0341 23.5016 17.1143 23.2666 17.2058L22.6667 17.3885V17.45C21.0643 18.1404 18.5554 19.6346 17.0968 22.7385C15.1131 26.9423 15 32.1692 15 32.1692V36.0769H22.6667V63H53.3333V36.0769H61V32.05C61 32.05 60.8352 30.4212 60.5208 28.4442C60.2065 26.4692 59.8845 24.2904 58.7843 22.5558C57.4543 20.4257 55.5694 18.7008 53.3333 17.5673V17.3865L52.5552 17.1462C52.4421 17.0942 52.4651 17.125 52.375 17.0865L52.0147 16.9654L46.326 15.0423H46.2647C46.2206 15.0288 45.0227 14.5173 43.3897 14.0231C41.7279 13.5192 39.7767 13 38 13ZM38 16.8462C38.8318 16.8462 40.7332 17.2885 42.2531 17.7481C42.6498 17.8673 42.6268 17.875 42.9718 17.9885C42.8511 18.1673 42.761 18.3404 42.6115 18.5288C41.7145 19.6481 40.4552 20.6923 38 20.6923C35.5448 20.6923 34.2855 19.6481 33.3885 18.5288C33.239 18.3404 33.1489 18.1673 33.0282 17.9885C33.3732 17.875 33.3502 17.8673 33.7469 17.7481C35.2668 17.2885 37.1682 16.8462 38 16.8462ZM29.2543 19.1904C29.5398 19.7385 29.9059 20.325 30.3927 20.9327C31.3063 22.0719 32.4656 22.9883 33.7833 23.6129C35.101 24.2375 36.5428 24.5539 38 24.5385C41.6532 24.5385 44.1908 22.6981 45.6072 20.9327C46.0941 20.325 46.4602 19.7385 46.7438 19.1904L49.5 20.1519V59.1538H26.5V20.1519L29.2543 19.1904ZM22.6667 21.7731V32.2308H18.8333C18.841 32.125 19.1323 27.4673 20.5698 24.4173C21.0433 23.378 21.7632 22.4708 22.6667 21.775V21.7731ZM53.3333 22.075C54.0368 22.6673 54.8149 23.4404 55.549 24.5981C55.8557 25.0865 56.4556 27.2423 56.7469 29.0462C57.0248 30.75 57.1513 32.0808 57.1667 32.2308H53.3333V22.075Z" fill="#BFA069"></path> </svg> 