<?xml version="1.0" encoding="UTF-8"?> <svg xmlns="http://www.w3.org/2000/svg" width="106" height="129" viewBox="0 0 106 129" fill="none"> <g clip-path="url(#clip0_134_306)"> <path d="M0 0H105.502L102.488 81.0777C101.493 107.828 79.5194 129 52.7509 129V129C25.9825 129 4.00846 107.828 3.01404 81.0777L0 0Z" fill="#BFA069"></path> <path d="M84.2632 31.1504L78.1505 14.7853C77.9378 14.187 77.6303 13.6629 76.6522 13.6309L75.8241 13.6265C74.8413 13.6226 74.5152 14.1343 74.2955 14.7415L68.2044 31.0797L71.7123 30.6295L76.1191 18.851L78.2341 24.4734L76.4812 24.4381L75.3159 27.5535L79.3772 27.6244L80.5609 30.782L84.2632 31.1504Z" fill="white"></path> <path d="M31.7495 27.7724C30.6077 27.7642 29.5208 27.3821 28.8359 26.6708C27.9935 25.8143 27.7195 24.964 27.7129 23.1488L27.706 13.9406L24.3833 13.9286L24.395 24.0139C24.4052 26.141 25.0274 27.7726 26.2901 29.0026C27.7361 30.4162 29.5006 31.0768 31.767 31.0883C34.0387 31.0671 35.7904 30.3959 37.2222 29.0128C38.4945 27.7479 39.1235 26.1244 39.1288 24.0165L39.1144 13.9199L35.7784 13.9194L35.7951 23.1504C35.8029 24.9534 35.5232 25.8202 34.6834 26.6727C34.0027 27.3826 32.9247 27.7748 31.7495 27.7724Z" fill="white"></path> <path d="M61.4717 17.0322L67.6708 17.0769L67.6855 13.9473L61.2904 13.8971C58.3348 13.8843 55.9273 15.213 55.9017 18.8845L55.8298 29.6931C55.8243 30.4501 56.3552 30.9251 57.0801 30.9421L59.1773 30.9423L59.2001 23.9563L66.9062 24.0159L66.9283 20.9233L59.2234 20.8734L59.2312 19.2639C59.2276 17.462 59.8594 17.0442 61.4717 17.0322Z" fill="white"></path> <path d="M53.5478 13.8911L43.0584 13.8838C42.3282 13.8842 41.7931 14.3362 41.7915 15.132L41.8035 25.9343C41.7816 29.6235 44.2032 30.9514 47.164 30.9419L53.5456 30.9365L53.5471 27.8096L47.345 27.7961C45.768 27.7984 45.1184 27.3617 45.1406 25.5716L45.1274 23.9635L52.8362 23.9531L52.851 20.8797L45.1407 20.8559L45.127 17.0302L53.566 17.0233L53.5478 13.8911Z" fill="white"></path> <mask id="mask0_134_306" style="mask-type:alpha" maskUnits="userSpaceOnUse" x="0" y="0" width="106" height="129"> <path d="M0 0H105.502L102.488 81.0777C101.493 107.828 79.5194 129 52.7509 129V129C25.9825 129 4.00846 107.828 3.01404 81.0777L0 0Z" fill="#BE2024"></path> </mask> <g mask="url(#mask0_134_306)"> <g style="mix-blend-mode:overlay" opacity="0.3"> <path d="M93.968 130.227H93.383C92.4771 130.227 91.7417 129.494 91.7417 128.587C91.7417 127.68 92.4771 126.943 93.383 126.943H93.968C94.8749 126.943 95.6114 127.68 95.6114 128.587C95.6114 129.494 94.8749 130.227 93.968 130.227ZM90.0983 124.567H26.2725C25.365 124.567 24.6293 123.83 24.6293 122.923C24.6293 122.017 25.365 121.28 26.2725 121.28H30.8216H85.5489H90.0983C91.0062 121.28 91.7417 122.017 91.7417 122.923C91.7417 123.83 91.0062 124.567 90.0983 124.567ZM81.2521 130.227H4.72459C3.81798 130.227 3.08265 129.494 3.08265 128.587C3.08265 127.68 3.81798 126.943 4.72459 126.943H19.3876H22.7216H30.6347H37.3851H43.8146H48.6322H54.442H61.6711H61.8121H63.2556H72.4385H79.6676H81.2521C82.16 126.943 82.8955 127.68 82.8955 128.587C82.8955 129.494 82.16 130.227 81.2521 130.227ZM63.5733 145.575C63.5733 146.483 62.8389 147.218 61.931 147.218H57.2512C56.3432 147.218 55.6077 146.483 55.6077 145.575C55.6077 144.668 56.3432 143.933 57.2512 143.933H61.931C62.8389 143.933 63.5733 144.668 63.5733 145.575ZM60.1361 152.845H58.1223C57.2354 152.845 56.5147 152.127 56.5147 151.239C56.5147 150.351 57.2354 149.632 58.1223 149.632H60.1361C61.0241 149.632 61.7437 150.351 61.7437 151.239C61.7437 152.127 61.0241 152.845 60.1361 152.845ZM56.1096 158.545H54.0959C53.2089 158.545 52.4882 157.825 52.4882 156.937C52.4882 156.048 53.2089 155.328 54.0959 155.328H56.1096C56.9976 155.328 57.7183 156.048 57.7183 156.937C57.7183 157.825 56.9976 158.545 56.1096 158.545ZM56.0181 164.265H55.3468C54.4083 164.265 53.6476 163.503 53.6476 162.565C53.6476 161.626 54.4083 160.865 55.3468 160.865H56.0181C56.9566 160.865 57.7183 161.626 57.7183 162.565C57.7183 163.503 56.9566 164.265 56.0181 164.265ZM49.9789 139.921C49.9789 139.014 50.7133 138.279 51.6213 138.279H56.0738C56.9818 138.279 57.7183 139.014 57.7183 139.921C57.7183 140.829 56.9818 141.565 56.0738 141.565H51.6213C50.7133 141.565 49.9789 140.829 49.9789 139.921ZM45.438 134.25C45.438 133.342 46.1734 132.607 47.0803 132.607H51.6129C52.5198 132.607 53.2552 133.342 53.2552 134.25C53.2552 135.156 52.5198 135.893 51.6129 135.893H47.0803C46.1734 135.893 45.438 135.156 45.438 134.25ZM43.0718 141.565H42.4521C41.5451 141.565 40.8108 140.829 40.8108 139.921C40.8108 139.014 41.5451 138.279 42.4521 138.279H43.0718C43.9787 138.279 44.7152 139.014 44.7152 139.921C44.7152 140.829 43.9787 141.565 43.0718 141.565ZM43.0718 147.218H42.5394C41.6325 147.218 40.897 146.483 40.897 145.575C40.897 144.668 41.6325 143.933 42.5394 143.933H43.0718C43.9787 143.933 44.7152 144.668 44.7152 145.575C44.7152 146.483 43.9787 147.218 43.0718 147.218ZM30.6613 135.893H4.85526C3.94781 135.893 3.21259 135.156 3.21259 134.25C3.21259 133.342 3.94781 132.607 4.85526 132.607H30.6613C31.5684 132.607 32.3041 133.342 32.3041 134.25C32.3041 135.156 31.5684 135.893 30.6613 135.893ZM22.5912 141.547H4.92512C4.01809 141.547 3.28287 140.811 3.28287 139.904C3.28287 138.996 4.01809 138.261 4.92512 138.261H22.5912C23.4987 138.261 24.234 138.996 24.234 139.904C24.234 140.811 23.4987 141.547 22.5912 141.547ZM22.4606 147.218H9.58737C8.68066 147.218 7.94544 146.483 7.94544 145.575C7.94544 144.668 8.68066 143.933 9.58737 143.933H22.4606C23.3676 143.933 24.1029 144.668 24.1029 145.575C24.1029 146.483 23.3676 147.218 22.4606 147.218ZM10.1631 152.845H9.55318C8.66551 152.845 7.94544 152.127 7.94544 151.239C7.94544 150.351 8.66551 149.632 9.55318 149.632H10.1631C11.0517 149.632 11.7713 150.351 11.7713 151.239C11.7713 152.127 11.0517 152.845 10.1631 152.845ZM8.91665 121.28H13.6676C14.5746 121.28 15.3094 122.017 15.3094 122.923C15.3094 123.83 14.5746 124.567 13.6676 124.567H8.91665C8.00993 124.567 7.27345 123.83 7.27345 122.923C7.27345 122.017 8.00993 121.28 8.91665 121.28ZM14.494 92.9652H16.8914C17.7988 92.9652 18.5341 93.7006 18.5341 94.6086C18.5341 95.5145 17.7988 96.2499 16.8914 96.2499H14.494C13.5874 96.2499 12.8522 95.5145 12.8522 94.6086C12.8522 93.7006 13.5874 92.9652 14.494 92.9652ZM19.4974 87.3016H20.3427C21.2498 87.3016 21.9858 88.036 21.9858 88.945C21.9858 89.852 21.2498 90.5863 20.3427 90.5863H19.4974C18.5899 90.5863 17.8543 89.852 17.8543 88.945C17.8543 88.036 18.5899 87.3016 19.4974 87.3016ZM23.5246 92.9652H34.234C35.1509 92.9652 35.8953 93.7006 35.8953 94.6086C35.8953 95.5145 35.1509 96.2499 34.234 96.2499H23.5246C22.6069 96.2499 21.8634 95.5145 21.8634 94.6086C21.8634 93.7006 22.6069 92.9652 23.5246 92.9652ZM32.1557 88.945C32.1557 89.852 31.4204 90.5863 30.5129 90.5863H27.4713C26.5647 90.5863 25.8286 89.852 25.8286 88.945C25.8286 88.036 26.5647 87.3016 27.4713 87.3016H30.5129C31.4204 87.3016 32.1557 88.036 32.1557 88.945ZM26.9485 81.6391H33.0233C33.9299 81.6391 34.6664 82.3735 34.6664 83.2794C34.6664 84.1884 33.9299 84.9228 33.0233 84.9228H26.9485C26.0414 84.9228 25.3054 84.1884 25.3054 83.2794C25.3054 82.3735 26.0414 81.6391 26.9485 81.6391ZM28.4391 75.9745H30.3478C31.2544 75.9745 31.9904 76.71 31.9904 77.6169C31.9904 78.5238 31.2544 79.2603 30.3478 79.2603H28.4391C27.5309 79.2603 26.7964 78.5238 26.7964 77.6169C26.7964 76.71 27.5309 75.9745 28.4391 75.9745ZM32.5441 101.912H18.1555C17.2476 101.912 16.5124 101.178 16.5124 100.271C16.5124 99.3621 17.2476 98.6277 18.1555 98.6277H32.5441C33.4507 98.6277 34.1867 99.3621 34.1867 100.271C34.1867 101.178 33.4507 101.912 32.5441 101.912ZM68.4583 138.279H77.3045C78.2114 138.279 78.9479 139.014 78.9479 139.921C78.9479 140.829 78.2114 141.565 77.3045 141.565H68.4583C67.5514 141.565 66.816 140.829 66.816 139.921C66.816 139.014 67.5514 138.279 68.4583 138.279ZM77.4445 147.218H72.45C71.5431 147.218 70.8077 146.483 70.8077 145.575C70.8077 144.668 71.5431 143.933 72.45 143.933H77.4445C78.3514 143.933 79.0868 144.668 79.0868 145.575C79.0868 146.483 78.3514 147.218 77.4445 147.218ZM81.3531 151.239C81.3531 152.127 80.6324 152.845 79.7454 152.845H78.8132C77.9242 152.845 77.2035 152.127 77.2035 151.239C77.2035 150.351 77.9242 149.632 78.8132 149.632H79.7454C80.6324 149.632 81.3531 150.351 81.3531 151.239ZM93.9932 149.632H95.1358C96.0248 149.632 96.7445 150.351 96.7445 151.239C96.7445 152.127 96.0248 152.845 95.1358 152.845H93.9932C93.1063 152.845 92.3856 152.127 92.3856 151.239C92.3856 150.351 93.1063 149.632 93.9932 149.632ZM46.8973 92.9652H47.7179C48.6238 92.9652 49.3592 93.7006 49.3592 94.6086C49.3592 95.5145 48.6238 96.2499 47.7179 96.2499H46.8973C45.9893 96.2499 45.2549 95.5145 45.2549 94.6086C45.2549 93.7006 45.9893 92.9652 46.8973 92.9652ZM47.6116 81.6391H64.5024C65.4093 81.6391 66.1447 82.3735 66.1447 83.2794C66.1447 84.1884 65.4093 84.9228 64.5024 84.9228H47.6116C46.7058 84.9228 45.9693 84.1884 45.9693 83.2794C45.9693 82.3735 46.7058 81.6391 47.6116 81.6391ZM47.6116 75.9745H59.9782C60.8862 75.9745 61.6227 76.71 61.6227 77.6169C61.6227 78.5238 60.8862 79.2603 59.9782 79.2603H47.6116C46.7058 79.2603 45.9693 78.5238 45.9693 77.6169C45.9693 76.71 46.7058 75.9745 47.6116 75.9745ZM55.7003 70.3131H64.4056C65.3146 70.3131 66.049 71.0464 66.049 71.9533C66.049 72.8613 65.3146 73.5968 64.4056 73.5968H55.7003C54.7924 73.5968 54.0569 72.8613 54.0569 71.9533C54.0569 71.0464 54.7924 70.3131 55.7003 70.3131ZM55.7003 64.6495H64.4056C65.3146 64.6495 66.049 65.3839 66.049 66.2908C66.049 67.1999 65.3146 67.9332 64.4056 67.9332H55.7003C54.7924 67.9332 54.0569 67.1999 54.0569 66.2908C54.0569 65.3839 54.7924 64.6495 55.7003 64.6495ZM60.2413 90.5863H55.8918C54.9838 90.5863 54.2495 89.852 54.2495 88.945C54.2495 88.036 54.9838 87.3016 55.8918 87.3016H60.2413C61.1482 87.3016 61.8836 88.036 61.8836 88.945C61.8836 89.852 61.1482 90.5863 60.2413 90.5863ZM60.0835 96.2499H55.996C55.0901 96.2499 54.3536 95.5145 54.3536 94.6086C54.3536 93.7006 55.0901 92.9652 55.996 92.9652H60.0835C60.9914 92.9652 61.7258 93.7006 61.7258 94.6086C61.7258 95.5145 60.9914 96.2499 60.0835 96.2499ZM104.731 128.587C104.731 127.68 105.467 126.943 106.373 126.943H111.783C111.894 126.155 111.991 125.362 112.071 124.567H97.885C96.9781 124.567 96.2426 123.83 96.2426 122.923C96.2426 122.017 96.9781 121.28 97.885 121.28H112.308C112.344 120.491 112.364 119.698 112.368 118.904H107.882H104.082H99.2022H96.1669H84.9439H80.0621H77.0289H76.264H73.2297H68.3489H57.1249H54.0916H49.2109H45.4106H26.2725C25.365 118.904 24.6293 118.167 24.6293 117.261C24.6293 116.353 25.365 115.617 26.2725 115.617H45.4096H45.4106H49.2109H54.0916H68.0511H68.3478C68.3489 115.617 68.3489 115.617 68.3489 115.617H73.2297H77.0289H96.1669H112.3C112.261 114.821 112.207 114.028 112.139 113.24H103.49H99.6894H94.8097H91.7753H80.5514H75.6706H72.6363H71.8714H68.8371H63.9563H52.7323H49.699H44.8183H41.018H21.8795C20.9729 113.24 20.2375 112.504 20.2375 111.597C20.2375 110.69 20.9729 109.954 21.8795 109.954H41.017C41.018 109.954 41.018 109.954 41.018 109.954H44.8183H49.699H63.6586H63.9563H68.8371H72.6363H91.7743H91.7753H111.755C111.64 109.156 111.509 108.363 111.362 107.575H97.4947H92.6128H89.5796H69.6746H66.6403H61.7605H38.8212C37.9143 107.575 37.1799 106.841 37.1799 105.935C37.1799 105.026 37.9143 104.291 38.8212 104.291H61.7595C61.7605 104.291 61.7605 104.291 61.7605 104.291H66.6403H80.7849H89.5785C89.5785 104.291 89.5785 104.291 89.5796 104.291H110.653C110.458 103.491 110.245 102.699 110.017 101.912H101.628H96.7498H93.7154H73.8104H70.7761H65.8954H42.9581C42.0502 101.912 41.3147 101.178 41.3147 100.271C41.3147 99.3621 42.0502 98.6277 42.9581 98.6277H65.8943H65.8954H70.7761H84.9187H93.7144C93.7144 98.6277 93.7144 98.6277 93.7154 98.6277H108.959C108.676 97.826 108.374 97.0337 108.057 96.2499H103.617H95.7018H72.7636C71.8556 96.2499 71.1202 95.5145 71.1202 94.6086C71.1202 93.7006 71.8556 92.9652 72.7636 92.9652H95.7008C95.7008 92.9652 95.7008 92.9652 95.7018 92.9652H106.612C106.229 92.1614 105.831 91.3681 105.414 90.5863H103.617H95.7018H72.7636C71.8556 90.5863 71.1202 89.852 71.1202 88.945C71.1202 88.036 71.8556 87.3016 72.7636 87.3016H95.7008C95.7008 87.3016 95.7008 87.3016 95.7018 87.3016H103.526C103.029 86.4957 102.513 85.7035 101.98 84.9228H81.0606C80.1537 84.9228 79.4182 84.1863 79.4182 83.2794C79.4182 82.3735 80.1537 81.6391 81.0606 81.6391H99.56C98.9203 80.828 98.2596 80.0347 97.5788 79.2603H68.3015C67.3936 79.2603 66.6592 78.5238 66.6592 77.6169C66.6592 76.71 67.3936 75.9745 68.3015 75.9745H94.4667C93.6323 75.157 92.7717 74.3648 91.889 73.5968H72.7636C71.8556 73.5968 71.1202 72.8613 71.1202 71.9533C71.1202 71.0464 71.8556 70.3131 72.7636 70.3131H87.7605C86.6116 69.4788 85.4332 68.6855 84.2243 67.9332H72.7636C71.8556 67.9332 71.1202 67.1978 71.1202 66.2908C71.1202 65.3839 71.8556 64.6495 72.7636 64.6495H78.1904C76.3008 63.7563 74.3575 62.9619 72.3669 62.2707H61.0598C60.1508 62.2707 59.4164 61.5342 59.4164 60.6273C59.4164 60.1444 59.6258 59.712 59.9582 59.41C57.6152 59.1312 55.2311 58.9849 52.8123 58.9849C39.7555 58.9849 27.6809 63.186 17.8653 70.3131H19.6453C20.5528 70.3131 21.2881 71.0464 21.2881 71.9533C21.2881 72.8613 20.5528 73.5968 19.6453 73.5968H13.7353C1.186 84.5167 -6.74634 100.605 -6.74634 118.545C-6.74634 151.437 19.9187 178.104 52.8123 178.104C70.3111 178.104 86.0466 170.557 96.9434 158.541C96.0775 158.496 95.3894 157.781 95.3894 156.902C95.3894 155.995 96.1237 155.259 97.0307 155.259H99.7115C101.691 152.734 103.469 150.047 105.026 147.218H89.6406C88.7337 147.218 87.9972 146.483 87.9972 145.575C87.9972 144.668 88.7337 143.933 89.6406 143.933H106.704C107.071 143.152 107.423 142.363 107.758 141.565H104.666H85.5279C84.6199 141.565 83.8845 140.829 83.8845 139.921C83.8845 139.014 84.6199 138.279 85.5279 138.279H104.665C104.666 138.279 104.666 138.279 104.666 138.279H108.465H109.024C109.3 137.491 109.559 136.694 109.804 135.893H106.2H94.9748H91.9405H87.0619H83.2606H64.1236C63.2156 135.893 62.4791 135.156 62.4791 134.25C62.4791 133.342 63.2156 132.607 64.1236 132.607H83.2606H87.0619H91.9405H105.901H106.199C106.199 132.607 106.199 132.607 106.2 132.607H110.701C110.891 131.821 111.065 131.028 111.224 130.227H106.373C105.467 130.227 104.731 129.494 104.731 128.587Z" fill="white"></path> </g> </g> <path d="M37.5095 89.5166V46.9664H57.2649C60.9121 46.9664 63.8501 48.0605 66.0789 50.2488C68.3077 52.4371 69.4221 55.2941 69.4221 58.8196C69.4221 61.4537 68.713 63.7636 67.2946 65.7493C66.5652 66.6813 65.856 67.4107 65.1671 67.9376V68.2415C66.0586 68.7683 66.8691 69.4977 67.5986 70.4298C69.2195 72.456 70.03 74.8672 70.03 77.6633C70.03 81.1889 68.9156 84.0459 66.6868 86.2342C64.4579 88.4225 61.5199 89.5166 57.8728 89.5166H37.5095ZM45.4116 64.5943H56.3531C57.893 64.5943 59.129 64.1283 60.0611 63.1962C61.0337 62.2237 61.5199 60.9674 61.5199 59.4275C61.5199 57.7255 61.0539 56.3882 60.1219 55.4156C59.1898 54.443 57.9336 53.9568 56.3531 53.9568H45.4116V64.5943ZM45.4116 82.5262H56.961C58.3388 82.5262 59.5343 81.9994 60.5474 80.9458C61.601 79.8921 62.1278 78.5954 62.1278 77.0555C62.1278 75.5155 61.601 74.2188 60.5474 73.1652C59.5343 72.1115 58.3388 71.5847 56.961 71.5847H45.4116V82.5262Z" fill="white"></path> <path d="M27.7124 111.145V102.162H29.3807V109.541H33.6155V111.145H27.7124ZM34.8306 111.145V102.162H36.4989V111.145H34.8306ZM44.7155 107.937H46.4479C46.3966 108.176 46.3196 108.424 46.2169 108.681C46.1228 108.938 45.9645 109.229 45.7421 109.554C45.5282 109.87 45.2801 110.153 44.9978 110.401C44.7155 110.649 44.3476 110.858 43.8942 111.03C43.4407 111.192 42.9445 111.273 42.4055 111.273C41.1736 111.273 40.1384 110.837 39.3 109.964C38.4616 109.092 38.0424 107.988 38.0424 106.654C38.0424 105.319 38.4616 104.215 39.3 103.343C40.1384 102.47 41.1736 102.034 42.4055 102.034C42.9103 102.034 43.3766 102.111 43.8043 102.265C44.2406 102.41 44.6042 102.598 44.8951 102.829C45.186 103.06 45.4427 103.33 45.6651 103.638C45.8875 103.937 46.0586 104.224 46.1784 104.498C46.2982 104.771 46.388 105.041 46.4479 105.306H44.7155C44.5444 104.861 44.2663 104.472 43.8813 104.138C43.5049 103.805 43.013 103.638 42.4055 103.638C41.6185 103.638 40.9725 103.916 40.4678 104.472C39.963 105.019 39.7106 105.747 39.7106 106.654C39.7106 107.56 39.963 108.292 40.4678 108.848C40.9725 109.395 41.6185 109.669 42.4055 109.669C43.0215 109.669 43.5177 109.498 43.8942 109.156C44.2791 108.814 44.5529 108.407 44.7155 107.937ZM47.864 111.145V102.162H53.8955V103.702H49.5323V105.884H53.6388V107.423H49.5323V109.605H53.8955V111.145H47.864ZM55.5587 111.145V102.162H57.8045L61.0769 108.386H61.3335V102.162H63.0018V111.145H60.756L57.4837 104.921H57.227V111.145H55.5587ZM64.4194 108.322H66.0877C66.0877 108.724 66.2674 109.062 66.6267 109.336C66.9945 109.601 67.4779 109.733 68.0768 109.733C68.6842 109.733 69.1334 109.631 69.4242 109.425C69.7237 109.212 69.8734 108.929 69.8734 108.578C69.8734 107.98 69.3815 107.595 68.3976 107.423L66.8577 107.167C65.3605 106.919 64.6119 106.106 64.6119 104.729C64.6119 103.959 64.9113 103.317 65.5102 102.804C66.1091 102.29 66.9218 102.034 67.9485 102.034C69.0606 102.034 69.9162 102.307 70.515 102.855C71.1139 103.403 71.4133 104.113 71.4133 104.985H69.7451C69.7451 104.583 69.5868 104.249 69.2702 103.984C68.9537 103.711 68.5131 103.574 67.9485 103.574C67.3924 103.574 66.9732 103.681 66.6908 103.894C66.4171 104.1 66.2802 104.378 66.2802 104.729C66.2802 105.002 66.37 105.225 66.5497 105.396C66.7293 105.558 67.0459 105.678 67.4993 105.755L68.9109 106.012C69.8263 106.174 70.4936 106.461 70.9128 106.872C71.3321 107.274 71.5417 107.843 71.5417 108.578C71.5417 109.383 71.2422 110.033 70.6434 110.529C70.0445 111.025 69.189 111.273 68.0768 111.273C66.9475 111.273 66.0535 111 65.3947 110.452C64.7445 109.896 64.4194 109.186 64.4194 108.322ZM73.0786 111.145V102.162H79.11V103.702H74.7469V105.884H78.8534V107.423H74.7469V109.605H79.11V111.145H73.0786Z" fill="white"></path> </g> <defs> <clipPath id="clip0_134_306"> <rect width="105.502" height="129" fill="white"></rect> </clipPath> </defs> </svg> 