<?xml version="1.0" encoding="UTF-8"?> <svg xmlns="http://www.w3.org/2000/svg" width="20" height="20" viewBox="0 0 20 20" fill="none"> <path d="M12.5608 1.66666H7.4475C2.77751 1.66666 1.66667 2.7775 1.66667 7.43916V12.5525C1.66667 17.2217 2.76917 18.3333 7.43917 18.3333H12.5525C17.2217 18.3333 18.3333 17.2308 18.3333 12.5608V7.4475C18.3333 2.7775 17.2308 1.66666 12.5608 1.66666ZM15.1217 13.5583H13.9058C13.4458 13.5583 13.3075 13.1858 12.4825 12.3608C11.7625 11.6667 11.4583 11.58 11.2758 11.58C11.0242 11.58 10.955 11.6492 10.955 11.9967V13.09C10.955 13.3858 10.8592 13.5592 10.0867 13.5592C9.33696 13.5088 8.60994 13.281 7.9655 12.8946C7.32107 12.5082 6.77765 11.9742 6.38 11.3367C5.43598 10.1617 4.77912 8.78261 4.46167 7.30916C4.46167 7.12666 4.53084 6.96166 4.87834 6.96166H6.09334C6.40584 6.96166 6.51834 7.10083 6.64084 7.42166C7.23084 9.15833 8.2375 10.6683 8.64584 10.6683C8.80251 10.6683 8.87084 10.5992 8.87084 10.2083V8.42C8.81917 7.60416 8.38584 7.535 8.38584 7.24C8.39141 7.16219 8.42706 7.08961 8.48525 7.03765C8.54343 6.98569 8.61956 6.95843 8.6975 6.96166H10.6075C10.8683 6.96166 10.955 7.09166 10.955 7.40416V9.8175C10.955 10.0783 11.0675 10.165 11.1458 10.165C11.3025 10.165 11.4233 10.0783 11.71 9.79166C12.3257 9.04079 12.8288 8.20423 13.2033 7.30833C13.2416 7.20072 13.3141 7.10858 13.4096 7.04599C13.5052 6.9834 13.6186 6.95378 13.7325 6.96166H14.9483C15.3125 6.96166 15.39 7.14416 15.3125 7.40416C14.8704 8.39452 14.3234 9.33462 13.6808 10.2083C13.55 10.4083 13.4975 10.5125 13.6808 10.7467C13.8017 10.9292 14.2275 11.285 14.5142 11.6233C14.9308 12.0389 15.2767 12.5196 15.5383 13.0467C15.6425 13.385 15.4683 13.5583 15.1217 13.5583Z" fill="black"></path> </svg> 