<?xml version="1.0" encoding="UTF-8"?> <svg xmlns="http://www.w3.org/2000/svg" width="20" height="20" viewBox="0 0 20 20" fill="none"> <path d="M16.8 5.7C14.4 2 9.49999 0.9 5.69999 3.2C1.99999 5.5 0.799993 10.5 3.19999 14.2L3.39999 14.5L2.59999 17.5L5.59999 16.7L5.89999 16.9C7.19999 17.6 8.59999 18 9.99999 18C11.5 18 13 17.6 14.3 16.8C18 14.4 19.1 9.5 16.8 5.7ZM14.7 13.4C14.3 14 13.8 14.4 13.1 14.5C12.7 14.5 12.2 14.7 10.2 13.9C8.49999 13.1 7.09999 11.8 6.09999 10.3C5.49999 9.6 5.19999 8.7 5.09999 7.8C5.09999 7 5.39999 6.3 5.89999 5.8C6.09999 5.6 6.29999 5.5 6.49999 5.5H6.99999C7.19999 5.5 7.39999 5.5 7.49999 5.9C7.69999 6.4 8.19999 7.6 8.19999 7.7C8.29999 7.8 8.29999 8 8.19999 8.1C8.29999 8.3 8.19999 8.5 8.09999 8.6C7.99999 8.7 7.89999 8.9 7.79999 9C7.59999 9.1 7.49999 9.3 7.59999 9.5C7.99999 10.1 8.49999 10.7 8.99999 11.2C9.59999 11.7 10.2 12.1 10.9 12.4C11.1 12.5 11.3 12.5 11.4 12.3C11.5 12.1 12 11.6 12.2 11.4C12.4 11.2 12.5 11.2 12.7 11.3L14.3 12.1C14.5 12.2 14.7 12.3 14.8 12.4C14.9 12.7 14.9 13.1 14.7 13.4Z" fill="black"></path> </svg> 